<svg version="1.2" xmlns="http://www.w3.org/2000/svg" viewBox="0 0 416 227" width="416" height="227"><style>.a{fill:#ba0004}</style><path class="a" d="m40.4 109h-16.5v-82.6h27.8q14 0 21.9 6.6 8 6.5 8 19.5 0 13.1-8 19.8-7.9 6.7-21.9 6.7h-11.3zm0-67.8v23h10.4q6.7 0 10.4-2.8 3.6-2.9 3.6-8.8 0-5.9-3.6-8.6-3.7-2.8-10.4-2.8zm63 67.8h-15.9v-61.3h15.4v11.6q1.6-6.6 6.3-10 4.7-3.5 12.7-3v14.9h-2.2q-6.8 0-11.6 4.4-4.7 4.4-4.7 12zm51.2 1.6q-9.4 0-16.8-4.4-7.5-4.4-11.7-11.6-4.2-7.3-4.2-16.1 0-8.9 4.2-16.2 4.2-7.3 11.7-11.7 7.4-4.3 16.8-4.3 9.6 0 16.9 4.3 7.4 4.4 11.6 11.7 4.2 7.3 4.2 16.2 0 8.8-4.2 16.1-4.2 7.2-11.6 11.6-7.3 4.4-16.9 4.4zm0-14.5q5.1 0 8.9-2.4 3.8-2.5 5.8-6.5 2.1-4 2.1-8.7 0-4.9-2.1-8.9-2-4-5.8-6.3-3.8-2.5-8.9-2.5-5 0-8.8 2.5-3.8 2.3-5.9 6.3-2 4-2 8.9 0 4.7 2 8.7 2.1 4 5.9 6.5 3.8 2.4 8.8 2.4zm47.8-53.5q-4 0-6.8-2.7-2.7-2.8-2.7-6.7 0-3.8 2.7-6.5 2.8-2.9 6.8-2.9 4.1 0 6.9 2.9 2.7 2.7 2.7 6.5 0 4-2.7 6.7-2.8 2.7-6.9 2.7zm-10.8 90h-5.2v-14.1h3q5 0 5-5.7v-65.1h15.9v65.9q0 10.1-4.8 14.6-4.9 4.4-13.9 4.4zm57.5-22q-9.4 0-16.6-4.4-7.2-4.4-11.2-11.6-3.9-7.3-3.9-16.1 0-8.9 4.1-16.2 4.2-7.4 11.2-11.8 7.2-4.4 16.4-4.4 9.3 0 16.2 4.4 7.1 4.4 11 11.8 4 7.3 4 16.2 0 1.3-0.1 2.7-0.1 1.4-0.4 2.9h-45.9q1.3 5.5 5.2 8.9 4 3.4 10 3.4 5.2 0 9-2.3 3.9-2.4 6-5.9l12.4 9.3q-3.6 5.8-11 9.4-7.3 3.7-16.4 3.7zm-0.2-50.8q-5.7 0-9.7 3.5-4 3.4-5.3 8.9h30.4q-1.3-5.1-5.5-8.7-4-3.7-9.9-3.7zm66.8 50.8q-6.6 0-12.4-2.5-5.7-2.5-10-6.8-4.4-4.5-6.9-10.3-2.3-5.9-2.3-12.6 0-9 4.1-16.2 4.3-7.3 11.6-11.7 7.4-4.4 16.7-4.4 8.4-0.1 15 3 6.6 3.1 10.5 8.5l-12.3 10q-2.1-3.2-5.5-5.1-3.3-1.8-7.4-1.8-5.1 0-8.9 2.4-3.8 2.4-5.9 6.4-2 4-2 8.9 0 4.7 2.1 8.8 2.3 4 6 6.5 3.9 2.4 9 2.4 4.6 0 7.8-2 3.2-2.2 5.5-5.4l11.6 10.1q-4.4 5.5-10.8 8.7-6.4 3.1-15.5 3.1zm64.5-1.6h-8.7q-9.1 0-13.9-4.4-4.8-4.5-4.8-14.6v-28.8h-8.7v-13.5h8.7v-12.4l15.9-1.7v14.1h13v13.5h-13v28q0 5.7 4.9 5.7h6.6zm-340.1 91h-16.2v-82.6h20.5l17.1 36.4q3 6.4 4.7 10.5 1.9 4.2 2.9 6.9 1 2.7 1.6 4.7 0.6-2 1.6-4.7 0.9-2.7 2.7-6.9 1.9-4.1 4.8-10.5l17.2-36.4h19.9v82.6h-16.2v-33.4q0-5.7 0.1-9.7 0.1-4 0.4-7.3 0.2-3.4 0.7-7l-27.5 57.4h-8l-27.5-57.4q0.4 3.6 0.7 7 0.2 3.3 0.3 7.3 0.2 4 0.2 9.7zm117.7 1.5q-9.4 0-16.9-4.3-7.4-4.4-11.6-11.6-4.2-7.3-4.2-16.2 0-8.8 4.2-16.1 4.2-7.4 11.6-11.7 7.5-4.4 16.9-4.4 9.6 0 16.9 4.4 7.4 4.3 11.6 11.7 4.2 7.3 4.2 16.1 0 8.9-4.2 16.2-4.2 7.2-11.6 11.6-7.3 4.3-16.9 4.3zm0-14.5q5.1 0 8.9-2.4 3.7-2.4 5.7-6.4 2.2-4.1 2.2-8.8 0-4.8-2.2-8.8-2-4-5.7-6.4-3.8-2.5-8.9-2.5-5.1 0-8.8 2.5-3.8 2.4-5.9 6.4-2 4-2 8.8 0 4.7 2 8.8 2.1 4 5.9 6.4 3.7 2.4 8.8 2.4zm55.7 13h-15.9v-61.4h15.4v11.7q1.6-6.6 6.3-10 4.7-3.6 12.7-3.1v15h-2.2q-6.8 0-11.6 4.4-4.7 4.3-4.7 12zm39.8 0h-16v-86.1h16v49.5l23-24.8h22.6l-28.9 28.6 29.1 32.8h-21.2l-24.6-29.1zm65.1 0h-19l23-30.7-21.8-30.7h19l12.5 19.5 13-19.5h18.6l-21.8 30.9 23 30.5h-19.3l-13.4-19.6z"/></svg>